<?xml version="1.0" standalone="no"?>
<!DOCTYPE svg PUBLIC "-//W3C//DTD SVG 20010904//EN"
 "http://www.w3.org/TR/2001/REC-SVG-20010904/DTD/svg10.dtd">
<svg version="1.0" xmlns="http://www.w3.org/2000/svg"
 width="239.000000pt" height="175.000000pt" viewBox="0 0 239.000000 175.000000"
 preserveAspectRatio="xMidYMid meet">

<g transform="translate(0.000000,175.000000) scale(0.100000,-0.100000)"
fill="#000000" stroke="none">
<path d="M0 875 l0 -875 1195 0 1195 0 0 875 0 875 -1195 0 -1195 0 0 -875z
m2270 -6 l0 -739 -1075 0 -1075 0 0 680 0 680 70 0 70 0 0 60 0 60 997 2 c549
2 1001 2 1006 0 4 -2 7 -336 7 -743z"/>
<path d="M497 1322 c8 -69 8 -82 -2 -105 -5 -13 -4 -16 9 -11 14 5 16 -2 16
-50 l0 -56 38 -1 c20 0 46 -2 57 -4 11 -1 47 -6 80 -10 35 -4 65 -14 73 -23 9
-12 12 -12 12 -3 0 14 2 14 120 -4 14 -2 54 -7 90 -10 36 -4 72 -11 80 -16 9
-5 -1 -6 -26 -3 -25 3 -45 1 -49 -5 -4 -7 4 -11 19 -11 19 0 26 -5 26 -20 0
-11 5 -20 10 -20 6 0 10 9 10 20 0 16 7 20 35 20 28 0 35 -4 35 -20 0 -11 7
-20 15 -20 10 0 15 10 15 26 0 25 2 26 38 19 20 -4 45 -7 55 -7 12 1 17 -4 13
-13 -2 -7 3 -19 12 -27 15 -12 16 -11 4 4 -8 10 -9 19 -3 22 12 8 21 -6 27
-42 3 -20 2 -23 -6 -12 -6 10 -10 11 -10 3 0 -7 -8 -13 -18 -13 -10 0 -28 -8
-41 -17 -18 -12 -22 -13 -16 -2 5 8 -1 5 -13 -5 -12 -11 -25 -16 -28 -13 -4 3
-22 0 -40 -8 -20 -8 -36 -10 -39 -4 -10 16 -47 10 -52 -8 -2 -10 -20 -25 -38
-34 -19 -9 -32 -11 -28 -5 4 6 -3 3 -15 -7 -11 -11 -25 -16 -30 -13 -4 3 -21
-2 -37 -10 -20 -10 -30 -11 -35 -3 -5 7 -9 5 -13 -5 -4 -9 -12 -16 -19 -16 -9
0 -9 3 2 11 12 9 12 10 -3 5 -10 -3 -24 -6 -29 -6 -6 0 -8 -3 -5 -7 4 -3 -5
-12 -20 -20 -19 -10 -28 -10 -33 -2 -5 7 -9 5 -13 -5 -4 -9 -12 -16 -19 -16
-9 0 -9 3 2 11 12 9 12 10 -3 5 -10 -3 -24 -6 -29 -6 -6 0 -8 -3 -5 -7 4 -3
-5 -12 -20 -20 -21 -11 -28 -11 -35 -1 -5 9 -8 9 -8 2 0 -17 -28 -25 -36 -12
-4 6 -3 8 4 4 6 -3 13 -2 16 3 4 5 -2 8 -11 6 -10 -2 -22 -4 -28 -4 -6 -1 -6
-4 1 -9 7 -5 8 -33 3 -87 -16 -169 -9 -265 16 -225 4 6 11 8 16 5 5 -4 9 -2 9
2 0 5 13 9 28 9 25 1 28 -2 24 -22 -3 -18 0 -24 13 -24 13 0 16 6 11 24 -4 18
-1 28 11 35 10 6 12 11 6 11 -7 0 -13 4 -13 9 0 5 9 7 20 4 11 -3 20 -14 20
-24 0 -12 7 -19 20 -19 14 0 20 7 20 24 0 13 -6 23 -12 22 -7 0 -14 4 -16 9
-1 6 6 10 17 11 10 1 23 4 30 8 7 5 9 1 4 -10 -5 -15 -2 -16 25 -11 19 4 32 2
32 -3 0 -6 8 -10 19 -10 13 0 20 9 23 30 5 33 -6 39 -21 13 -7 -12 -10 -13
-11 -4 0 7 -6 11 -15 7 -9 -3 -15 0 -15 9 0 8 8 16 18 17 32 2 37 4 49 11 7 4
27 5 45 3 l33 -5 -30 15 -30 14 40 -6 c30 -4 36 -3 25 5 -12 9 -10 11 10 11
18 0 21 3 11 9 -10 7 -7 9 12 8 16 -1 27 -8 27 -16 0 -10 9 -12 38 -7 20 3 49
6 65 6 20 0 27 5 27 20 0 11 5 20 11 20 7 0 9 10 7 25 -4 17 -1 25 8 25 8 0
14 -11 14 -25 0 -18 5 -25 20 -25 18 0 22 8 19 38 0 4 -7 6 -14 6 -8 -1 -13 2
-10 6 3 5 -3 11 -12 13 -10 3 2 3 27 1 33 -3 40 -2 25 5 -19 9 -18 10 5 10 19
1 21 4 11 10 -10 7 -7 9 12 8 15 -1 27 -7 27 -14 0 -16 63 -29 68 -14 2 6 17
11 33 11 22 0 29 5 29 20 0 11 5 20 11 20 7 0 9 11 6 26 -4 22 -1 25 15 21 16
-5 17 -3 6 10 -11 14 -10 15 11 8 16 -5 21 -4 17 4 -4 6 -3 11 3 11 5 0 13 -4
16 -10 3 -5 1 -10 -4 -10 -6 0 -11 -4 -11 -10 0 -5 11 -10 25 -10 18 0 25 5
25 19 0 10 7 24 15 31 11 9 15 9 15 1 0 -8 7 -7 23 3 12 8 41 17 65 21 38 6
42 5 42 -14 0 -12 5 -21 10 -21 6 0 10 -27 10 -60 0 -33 4 -60 10 -60 6 0 10
33 10 80 0 73 -2 80 -20 80 -30 0 -26 38 5 50 14 5 25 13 25 18 0 5 21 10 47
11 47 1 73 14 59 28 -4 4 -11 1 -17 -7 -7 -11 -8 -9 -4 10 12 59 13 80 5 75
-6 -4 -7 7 -4 24 4 18 2 37 -5 44 -6 8 -8 17 -4 20 3 4 -1 7 -10 7 -10 0 -17
-5 -17 -12 0 -9 -3 -9 -12 0 -15 15 -32 16 -22 1 4 -7 0 -9 -12 -6 -11 3 -36
9 -56 13 -23 4 -35 10 -31 17 4 6 -2 8 -16 4 -18 -4 -20 -3 -10 9 6 8 9 17 5
21 -3 3 -6 1 -6 -6 0 -8 -8 -11 -20 -8 -11 3 -18 1 -14 -4 3 -5 -2 -9 -11 -9
-9 0 -14 3 -12 8 3 4 -16 7 -41 7 -80 1 -129 16 -116 36 7 13 -19 7 -28 -6 -5
-7 -8 -7 -8 0 0 6 -19 9 -45 7 -42 -4 -45 -2 -45 21 0 19 -6 26 -27 30 -16 3
-30 1 -31 -4 -2 -5 -9 -6 -15 -2 -7 3 -8 2 -4 -3 5 -5 13 -10 18 -10 5 -1 15
-2 22 -3 8 -1 7 -5 -3 -11 -10 -5 -36 -4 -70 5 -46 12 -48 14 -15 10 35 -4 37
-3 15 6 -13 5 -39 8 -57 6 -29 -4 -33 -2 -33 18 0 18 -7 24 -30 27 -16 3 -30
1 -30 -2 0 -4 -12 -5 -27 -2 -16 2 -26 2 -23 -1 3 -3 20 -7 38 -10 40 -7 48
-12 28 -20 -9 -4 -18 -2 -21 3 -4 6 -16 10 -29 10 -12 0 -27 5 -33 11 -8 8
-13 8 -17 0 -5 -8 -13 -8 -27 0 -11 6 -26 8 -33 6 -16 -7 -107 12 -123 25 -7
5 -17 7 -23 3 -5 -3 -10 -2 -10 2 0 5 -26 10 -57 11 -31 1 -61 6 -67 12 -7 7
-5 10 5 10 12 0 12 1 -1 9 -16 11 -33 4 -25 -10 3 -5 -1 -6 -9 -3 -9 3 -13 10
-10 15 3 5 0 9 -5 9 -6 0 -11 -4 -11 -10 0 -5 -9 -10 -21 -10 -13 0 -18 4 -13
13 4 6 4 9 0 5 -5 -4 -19 -3 -32 2 l-24 10 7 -58z m580 -459 c-9 -9 -19 -14
-23 -11 -10 10 6 28 24 28 15 0 15 -1 -1 -17z m583 -5 c0 -4 -4 -8 -9 -8 -6 0
-12 4 -15 8 -3 5 1 9 9 9 8 0 15 -4 15 -9z m-40 -12 c0 -11 -19 -15 -25 -6 -3
5 1 10 9 10 9 0 16 -2 16 -4z m-50 -16 c0 -5 -8 -10 -17 -10 -15 0 -16 2 -3
10 19 12 20 12 20 0z"/>
<path d="M1857 1126 c-3 -8 0 -19 7 -25 8 -7 12 -5 13 9 2 24 -13 35 -20 16z"/>
<path d="M961 1031 c-8 -5 -9 -11 -3 -15 5 -3 12 1 16 9 6 17 6 18 -13 6z"/>
<path d="M1243 994 c-7 -3 -9 -12 -6 -20 8 -21 19 -17 19 6 0 11 0 20 -1 19 0
0 -5 -3 -12 -5z"/>
<path d="M1157 926 c-4 -10 -1 -13 9 -9 7 3 14 9 14 14 0 14 -17 10 -23 -5z"/>
<path d="M1787 905 c3 -8 9 -12 14 -9 12 7 11 11 -5 17 -10 4 -13 1 -9 -8z"/>
<path d="M916 845 c-3 -8 -1 -15 3 -15 5 0 11 7 15 15 3 8 1 15 -3 15 -5 0
-11 -7 -15 -15z"/>
<path d="M1000 550 c0 -11 5 -20 10 -20 6 0 10 9 10 20 0 11 -4 20 -10 20 -5
0 -10 -9 -10 -20z"/>
<path d="M524 403 c4 -7 2 -13 -4 -13 -6 0 -9 -4 -6 -9 3 -5 25 -8 48 -6 55 3
56 4 38 15 -9 5 -19 5 -27 -2 -10 -8 -19 -6 -35 8 -12 11 -18 13 -14 7z"/>
</g>
</svg>
